<?xml version="1.0" encoding="UTF-8"?>
<svg width="752pt" height="752pt" version="1.1" viewBox="0 0 752 752" xmlns="http://www.w3.org/2000/svg">
 <g>
  <path d="m296.13 453.19c-10.129-9.0664-20.258-18.129-30.387-27.195-16.141-14.43-32.234-28.906-48.375-43.336-3.6992-3.2852-7.3984-6.6133-11.055-9.8984v6.5195c10.129-9.0664 20.258-18.129 30.387-27.195 16.141-14.43 32.234-28.906 48.375-43.336 3.6992-3.2852 7.3984-6.6133 11.055-9.8984 4.4414-3.9766-2.1289-10.5-6.5195-6.5195-10.129 9.0664-20.258 18.129-30.387 27.195-16.141 14.43-32.234 28.906-48.375 43.336-3.6992 3.2852-7.3984 6.6133-11.055 9.8984-1.8047 1.6172-1.8047 4.9492 0 6.5195 10.129 9.0664 20.258 18.129 30.387 27.195 16.141 14.43 32.234 28.906 48.375 43.336 3.6992 3.2852 7.3984 6.6133 11.055 9.8984 4.4375 3.9766 11.004-2.543 6.5195-6.5195z"/>
  <path d="m455.87 298.81c10.129 9.0664 20.258 18.129 30.387 27.195 16.141 14.43 32.234 28.906 48.375 43.336 3.6992 3.2852 7.3984 6.6133 11.055 9.8984v-6.5195c-10.129 9.0664-20.258 18.129-30.387 27.195-16.141 14.43-32.234 28.906-48.375 43.336-3.6992 3.2852-7.3984 6.6133-11.055 9.8984-4.4414 3.9766 2.1289 10.5 6.5195 6.5195 10.129-9.0664 20.258-18.129 30.387-27.195 16.141-14.43 32.234-28.906 48.375-43.336 3.6992-3.2852 7.3984-6.6133 11.055-9.8984 1.8047-1.6172 1.8047-4.9492 0-6.5195-10.129-9.0664-20.258-18.129-30.387-27.195-16.141-14.43-32.234-28.906-48.375-43.336-3.6992-3.2852-7.3984-6.6133-11.055-9.8984-4.4375-3.9766-11.004 2.543-6.5195 6.5195z"/>
  <path d="m339.05 502.68c2.7734-8.3242 5.5039-16.648 8.2773-25.02 6.6133-20.027 13.227-40.004 19.84-60.031 7.9531-24.141 15.91-48.238 23.91-72.379 6.8906-20.859 13.781-41.715 20.672-62.574 3.3281-10.129 7.168-20.211 10.082-30.477 0.046875-0.14062 0.09375-0.27734 0.14062-0.41797 1.8516-5.6406-7.0742-8.0938-8.9258-2.4492-2.7734 8.3242-5.5039 16.648-8.2773 25.02-6.6133 20.027-13.227 40.004-19.84 60.031-7.9531 24.141-15.91 48.238-23.91 72.379-6.8906 20.859-13.781 41.715-20.672 62.574-3.3281 10.129-7.168 20.211-10.082 30.477-0.046875 0.14062-0.09375 0.27734-0.14062 0.41797-1.8984 5.6406 7.0273 8.0898 8.9258 2.4492z"/>
 </g>
</svg>
