<?xml version="1.0" encoding="UTF-8"?>
<svg width="752pt" height="752pt" version="1.1" viewBox="0 0 752 752" xmlns="http://www.w3.org/2000/svg">
 <g>
  <path d="m364.64 395.42h-38.359l-97.559 189.91c-2.3672 4.7344-0.47266 10.891 4.2617 13.262 1.4219 0.94531 2.8398 0.94531 4.2617 0.94531 3.7891 0 7.1055-1.8945 8.9961-5.2109l89.035-173.8v175.7c0 5.6836 4.2617 9.9453 9.9453 9.9453s9.9453-4.2617 9.9453-9.9453v-175.7l89.035 173.8c1.8945 3.3164 5.2109 5.2109 8.9961 5.2109 1.4219 0 2.8398-0.47266 4.7344-0.94531 4.7344-2.3672 6.6289-8.5234 4.2617-13.262z"/>
  <path d="m580.59 231.56-40.73-83.824c-2.3672-3.7891-7.1016-5.6836-11.363-3.7891l-173.8 84.301c-4.2617 1.8945-6.1562 7.1055-3.7891 11.367l1.4219 2.8398-93.77 45.465c-1.8945 0.94531-3.7891 2.8398-4.2617 4.7344-0.94531 1.8945-0.47266 4.2617 0.47266 6.6289l0.94531 2.3672-81.453 39.309c-4.2617 1.8945-6.1562 7.1055-3.7891 11.367l18.941 38.832c0.94531 1.8945 2.8398 3.7891 4.7344 4.2617 0.94531 0.47266 1.8945 0.47266 2.8398 0.47266 1.4219 0 2.3672-0.47266 3.7891-0.94531l81.457-39.781v0.47266c1.4219 2.8398 4.2617 4.7344 7.5781 4.7344 1.4219 0 2.3672-0.47266 3.7891-0.94531l30.309-14.68c0.94531 7.1055 6.1562 13.262 12.785 14.68v20.363h-8.0469l-2.8398 8.9961h39.309l-2.3672-8.9961h-8.5234v-20.363c7.5781-1.8945 12.785-8.5234 12.785-16.574 0-3.7891-1.4219-7.5781-3.3164-10.418l26.52-13.262 1.8945 3.3164c1.4219 2.8398 4.2617 4.7344 7.5781 4.7344 1.4219 0 2.3672-0.47266 3.7891-0.94531l173.33-84.297c1.8945-0.94531 3.7891-2.8398 4.2617-4.7344 0.46875-0.94922 0.46875-3.3203-0.47656-5.6875zm-379.81 144.44-11.367-23.68 10.418-4.7344 12.312 23.207zm24.152-11.363-12.312-23.207 50.672-24.625 11.367 23.68zm68.668-24.152-18.941-38.832c-0.47266-0.47266-0.47266-0.94531-0.94531-1.4219l-0.47266-0.94531 11.84-5.6836 20.836 41.203-12.312 6.1562c0.46875-0.47656 0.46875-0.47656-0.003906-0.47656zm51.621 8.9961c-3.3164 0-6.1562-2.8398-6.1562-6.1562 0-3.3164 2.8398-6.1562 6.1562-6.1562s6.1562 2.8398 6.1562 6.1562c0 3.3164-2.3672 6.1562-6.1562 6.1562zm-25.574-20.836-20.836-41.203 58.25-28.414 20.363 41.676zm83.352-20.363-33.152-68.668 130.71-63.465 35.52 67.723zm147.76-71.512-35.52-67.723 12.785-6.1562 33.152 68.668z"/>
 </g>
</svg>
