<?xml version="1.0" encoding="UTF-8"?>
<svg width="752pt" height="752pt" version="1.1" viewBox="0 0 752 752" xmlns="http://www.w3.org/2000/svg">
 <g>
  <path d="m600 142.05h-174.75c-20.836 0-39.781 10.418-50.672 26.992-10.895-16.098-29.836-26.992-50.676-26.992h-171.91c-6.1562 0-10.891 4.7344-10.891 10.891v414.38c0 6.1562 4.7344 10.891 10.891 10.891l171.91 0.003906c20.836 0 33.625 14.207 38.832 20.836 0 0.47266 5.6836 10.418 11.84 10.418 2.8398 0 5.6836-2.3672 7.5781-4.7344 0 0 4.2617-5.6836 4.2617-5.6836 5.2109-6.6289 17.996-20.836 38.832-20.836h174.75c6.1562 0 10.891-4.7344 10.891-10.891l0.007813-414.38c0-5.6836-4.7383-10.895-10.895-10.895zm-437.11 414.39v-392.6h161.02c21.785 0 39.781 17.996 39.781 39.781 0 0 0 351.87 0.47266 352.82zm426.22 0h-204.11c0.47266-0.94922 0.47266-352.82 0.47266-352.82 0-21.785 17.996-39.781 39.781-39.781h163.86z"/>
  <path d="m320.59 218.77h-114.61c-6.1562 0-10.891 4.7344-10.891 10.891v83.824c0 6.1562 4.7344 10.891 10.891 10.891h114.61c6.1562 0 10.891-4.7344 10.891-10.891l0.003906-83.824c0-5.6836-4.7344-10.891-10.891-10.891zm-10.895 83.824h-92.82v-62.039h92.82z"/>
  <path d="m320.59 386.42h-115.08c-6.1562 0-10.891 4.7344-10.891 10.891s4.7344 10.891 10.891 10.891h115.08c6.1562 0 10.891-4.7344 10.891-10.891s-4.7344-10.891-10.891-10.891z"/>
  <path d="m550.75 474.98h-115.08c-6.1562 0-10.891 4.7344-10.891 10.891s4.7344 10.891 10.891 10.891h115.08c6.1562 0 10.891-4.7344 10.891-10.891s-4.7344-10.891-10.891-10.891z"/>
  <path d="m550.75 391.16h-115.08c-6.1562 0-10.891 4.7344-10.891 10.891s4.7344 10.891 10.891 10.891h115.08c6.1562 0 10.891-4.7344 10.891-10.891s-4.7344-10.891-10.891-10.891z"/>
  <path d="m550.75 307.8h-115.08c-6.1562 0-10.891 4.7344-10.891 10.891s4.7344 10.891 10.891 10.891h115.08c6.1562 0 10.891-4.7344 10.891-10.891 0-6.1523-4.7344-10.891-10.891-10.891z"/>
  <path d="m435.67 245.77h115.08c6.1562 0 10.891-4.7344 10.891-10.891s-4.7344-10.891-10.891-10.891l-115.08-0.003906c-6.1562 0-10.891 4.7344-10.891 10.891 0 6.1602 4.7344 10.895 10.891 10.895z"/>
  <path d="m320.59 469.77h-115.08c-6.1562 0-10.891 4.7344-10.891 10.891s4.7344 10.891 10.891 10.891h115.08c6.1562 0 10.891-4.7344 10.891-10.891 0-5.6797-4.7344-10.891-10.891-10.891z"/>
 </g>
</svg>
